<?xml version="1.0" encoding="utf-8" standalone="no"?>
<!DOCTYPE svg PUBLIC "-//W3C//DTD SVG 1.1//EN"
  "http://www.w3.org/Graphics/SVG/1.1/DTD/svg11.dtd">
<svg xmlns:xlink="http://www.w3.org/1999/xlink" width="864pt" height="648pt" viewBox="0 0 864 648" xmlns="http://www.w3.org/2000/svg" version="1.1">
 <metadata>
  <rdf:RDF xmlns:dc="http://purl.org/dc/elements/1.1/" xmlns:cc="http://creativecommons.org/ns#" xmlns:rdf="http://www.w3.org/1999/02/22-rdf-syntax-ns#">
   <cc:Work>
    <dc:type rdf:resource="http://purl.org/dc/dcmitype/StillImage"/>
    <dc:date>2024-03-30T07:47:06.745090</dc:date>
    <dc:format>image/svg+xml</dc:format>
    <dc:creator>
     <cc:Agent>
      <dc:title>Matplotlib v3.7.1, https://matplotlib.org/</dc:title>
     </cc:Agent>
    </dc:creator>
   </cc:Work>
  </rdf:RDF>
 </metadata>
 <defs>
  <style type="text/css">*{stroke-linejoin: round; stroke-linecap: butt}</style>
 </defs>
 <g id="figure_1">
  <g id="patch_1">
   <path d="M 0 648 
L 864 648 
L 864 0 
L 0 0 
z
" style="fill: #ffffff"/>
  </g>
  <g id="axes_1">
   <g id="patch_2">
    <path d="M 108 576.72 
L 777.6 576.72 
L 777.6 77.76 
L 108 77.76 
z
" style="fill: #ffffff"/>
   </g>
   <g id="matplotlib.axis_1">
    <g id="xtick_1">
     <g id="line2d_1">
      <defs>
       <path id="md056855c3b" d="M 0 0 
L 0 3.5 
" style="stroke: #000000; stroke-width: 0.8"/>
      </defs>
      <g>
       <use xlink:href="#md056855c3b" x="138.436364" y="576.72" style="stroke: #000000; stroke-width: 0.8"/>
      </g>
     </g>
     <g id="text_1">
      <!-- 0 -->
      <g transform="translate(135.255114 591.318438) scale(0.1 -0.1)">
       <defs>
        <path id="DejaVuSans-30" d="M 2034 4250 
Q 1547 4250 1301 3770 
Q 1056 3291 1056 2328 
Q 1056 1369 1301 889 
Q 1547 409 2034 409 
Q 2525 409 2770 889 
Q 3016 1369 3016 2328 
Q 3016 3291 2770 3770 
Q 2525 4250 2034 4250 
z
M 2034 4750 
Q 2819 4750 3233 4129 
Q 3647 3509 3647 2328 
Q 3647 1150 3233 529 
Q 2819 -91 2034 -91 
Q 1250 -91 836 529 
Q 422 1150 422 2328 
Q 422 3509 836 4129 
Q 1250 4750 2034 4750 
z
" transform="scale(0.015625)"/>
       </defs>
       <use xlink:href="#DejaVuSans-30"/>
      </g>
     </g>
    </g>
    <g id="xtick_2">
     <g id="line2d_2">
      <g>
       <use xlink:href="#md056855c3b" x="260.303686" y="576.72" style="stroke: #000000; stroke-width: 0.8"/>
      </g>
     </g>
     <g id="text_2">
      <!-- 200 -->
      <g transform="translate(250.759936 591.318438) scale(0.1 -0.1)">
       <defs>
        <path id="DejaVuSans-32" d="M 1228 531 
L 3431 531 
L 3431 0 
L 469 0 
L 469 531 
Q 828 903 1448 1529 
Q 2069 2156 2228 2338 
Q 2531 2678 2651 2914 
Q 2772 3150 2772 3378 
Q 2772 3750 2511 3984 
Q 2250 4219 1831 4219 
Q 1534 4219 1204 4116 
Q 875 4013 500 3803 
L 500 4441 
Q 881 4594 1212 4672 
Q 1544 4750 1819 4750 
Q 2544 4750 2975 4387 
Q 3406 4025 3406 3419 
Q 3406 3131 3298 2873 
Q 3191 2616 2906 2266 
Q 2828 2175 2409 1742 
Q 1991 1309 1228 531 
z
" transform="scale(0.015625)"/>
       </defs>
       <use xlink:href="#DejaVuSans-32"/>
       <use xlink:href="#DejaVuSans-30" x="63.623047"/>
       <use xlink:href="#DejaVuSans-30" x="127.246094"/>
      </g>
     </g>
    </g>
    <g id="xtick_3">
     <g id="line2d_3">
      <g>
       <use xlink:href="#md056855c3b" x="382.171007" y="576.72" style="stroke: #000000; stroke-width: 0.8"/>
      </g>
     </g>
     <g id="text_3">
      <!-- 400 -->
      <g transform="translate(372.627257 591.318438) scale(0.1 -0.1)">
       <defs>
        <path id="DejaVuSans-34" d="M 2419 4116 
L 825 1625 
L 2419 1625 
L 2419 4116 
z
M 2253 4666 
L 3047 4666 
L 3047 1625 
L 3713 1625 
L 3713 1100 
L 3047 1100 
L 3047 0 
L 2419 0 
L 2419 1100 
L 313 1100 
L 313 1709 
L 2253 4666 
z
" transform="scale(0.015625)"/>
       </defs>
       <use xlink:href="#DejaVuSans-34"/>
       <use xlink:href="#DejaVuSans-30" x="63.623047"/>
       <use xlink:href="#DejaVuSans-30" x="127.246094"/>
      </g>
     </g>
    </g>
    <g id="xtick_4">
     <g id="line2d_4">
      <g>
       <use xlink:href="#md056855c3b" x="504.038329" y="576.72" style="stroke: #000000; stroke-width: 0.8"/>
      </g>
     </g>
     <g id="text_4">
      <!-- 600 -->
      <g transform="translate(494.494579 591.318438) scale(0.1 -0.1)">
       <defs>
        <path id="DejaVuSans-36" d="M 2113 2584 
Q 1688 2584 1439 2293 
Q 1191 2003 1191 1497 
Q 1191 994 1439 701 
Q 1688 409 2113 409 
Q 2538 409 2786 701 
Q 3034 994 3034 1497 
Q 3034 2003 2786 2293 
Q 2538 2584 2113 2584 
z
M 3366 4563 
L 3366 3988 
Q 3128 4100 2886 4159 
Q 2644 4219 2406 4219 
Q 1781 4219 1451 3797 
Q 1122 3375 1075 2522 
Q 1259 2794 1537 2939 
Q 1816 3084 2150 3084 
Q 2853 3084 3261 2657 
Q 3669 2231 3669 1497 
Q 3669 778 3244 343 
Q 2819 -91 2113 -91 
Q 1303 -91 875 529 
Q 447 1150 447 2328 
Q 447 3434 972 4092 
Q 1497 4750 2381 4750 
Q 2619 4750 2861 4703 
Q 3103 4656 3366 4563 
z
" transform="scale(0.015625)"/>
       </defs>
       <use xlink:href="#DejaVuSans-36"/>
       <use xlink:href="#DejaVuSans-30" x="63.623047"/>
       <use xlink:href="#DejaVuSans-30" x="127.246094"/>
      </g>
     </g>
    </g>
    <g id="xtick_5">
     <g id="line2d_5">
      <g>
       <use xlink:href="#md056855c3b" x="625.905651" y="576.72" style="stroke: #000000; stroke-width: 0.8"/>
      </g>
     </g>
     <g id="text_5">
      <!-- 800 -->
      <g transform="translate(616.361901 591.318438) scale(0.1 -0.1)">
       <defs>
        <path id="DejaVuSans-38" d="M 2034 2216 
Q 1584 2216 1326 1975 
Q 1069 1734 1069 1313 
Q 1069 891 1326 650 
Q 1584 409 2034 409 
Q 2484 409 2743 651 
Q 3003 894 3003 1313 
Q 3003 1734 2745 1975 
Q 2488 2216 2034 2216 
z
M 1403 2484 
Q 997 2584 770 2862 
Q 544 3141 544 3541 
Q 544 4100 942 4425 
Q 1341 4750 2034 4750 
Q 2731 4750 3128 4425 
Q 3525 4100 3525 3541 
Q 3525 3141 3298 2862 
Q 3072 2584 2669 2484 
Q 3125 2378 3379 2068 
Q 3634 1759 3634 1313 
Q 3634 634 3220 271 
Q 2806 -91 2034 -91 
Q 1263 -91 848 271 
Q 434 634 434 1313 
Q 434 1759 690 2068 
Q 947 2378 1403 2484 
z
M 1172 3481 
Q 1172 3119 1398 2916 
Q 1625 2713 2034 2713 
Q 2441 2713 2670 2916 
Q 2900 3119 2900 3481 
Q 2900 3844 2670 4047 
Q 2441 4250 2034 4250 
Q 1625 4250 1398 4047 
Q 1172 3844 1172 3481 
z
" transform="scale(0.015625)"/>
       </defs>
       <use xlink:href="#DejaVuSans-38"/>
       <use xlink:href="#DejaVuSans-30" x="63.623047"/>
       <use xlink:href="#DejaVuSans-30" x="127.246094"/>
      </g>
     </g>
    </g>
    <g id="xtick_6">
     <g id="line2d_6">
      <g>
       <use xlink:href="#md056855c3b" x="747.772973" y="576.72" style="stroke: #000000; stroke-width: 0.8"/>
      </g>
     </g>
     <g id="text_6">
      <!-- 1000 -->
      <g transform="translate(735.047973 591.318438) scale(0.1 -0.1)">
       <defs>
        <path id="DejaVuSans-31" d="M 794 531 
L 1825 531 
L 1825 4091 
L 703 3866 
L 703 4441 
L 1819 4666 
L 2450 4666 
L 2450 531 
L 3481 531 
L 3481 0 
L 794 0 
L 794 531 
z
" transform="scale(0.015625)"/>
       </defs>
       <use xlink:href="#DejaVuSans-31"/>
       <use xlink:href="#DejaVuSans-30" x="63.623047"/>
       <use xlink:href="#DejaVuSans-30" x="127.246094"/>
       <use xlink:href="#DejaVuSans-30" x="190.869141"/>
      </g>
     </g>
    </g>
    <g id="text_7">
     <!-- time -->
     <g transform="translate(431.503906 604.996562) scale(0.1 -0.1)">
      <defs>
       <path id="DejaVuSans-74" d="M 1172 4494 
L 1172 3500 
L 2356 3500 
L 2356 3053 
L 1172 3053 
L 1172 1153 
Q 1172 725 1289 603 
Q 1406 481 1766 481 
L 2356 481 
L 2356 0 
L 1766 0 
Q 1100 0 847 248 
Q 594 497 594 1153 
L 594 3053 
L 172 3053 
L 172 3500 
L 594 3500 
L 594 4494 
L 1172 4494 
z
" transform="scale(0.015625)"/>
       <path id="DejaVuSans-69" d="M 603 3500 
L 1178 3500 
L 1178 0 
L 603 0 
L 603 3500 
z
M 603 4863 
L 1178 4863 
L 1178 4134 
L 603 4134 
L 603 4863 
z
" transform="scale(0.015625)"/>
       <path id="DejaVuSans-6d" d="M 3328 2828 
Q 3544 3216 3844 3400 
Q 4144 3584 4550 3584 
Q 5097 3584 5394 3201 
Q 5691 2819 5691 2113 
L 5691 0 
L 5113 0 
L 5113 2094 
Q 5113 2597 4934 2840 
Q 4756 3084 4391 3084 
Q 3944 3084 3684 2787 
Q 3425 2491 3425 1978 
L 3425 0 
L 2847 0 
L 2847 2094 
Q 2847 2600 2669 2842 
Q 2491 3084 2119 3084 
Q 1678 3084 1418 2786 
Q 1159 2488 1159 1978 
L 1159 0 
L 581 0 
L 581 3500 
L 1159 3500 
L 1159 2956 
Q 1356 3278 1631 3431 
Q 1906 3584 2284 3584 
Q 2666 3584 2933 3390 
Q 3200 3197 3328 2828 
z
" transform="scale(0.015625)"/>
       <path id="DejaVuSans-65" d="M 3597 1894 
L 3597 1613 
L 953 1613 
Q 991 1019 1311 708 
Q 1631 397 2203 397 
Q 2534 397 2845 478 
Q 3156 559 3463 722 
L 3463 178 
Q 3153 47 2828 -22 
Q 2503 -91 2169 -91 
Q 1331 -91 842 396 
Q 353 884 353 1716 
Q 353 2575 817 3079 
Q 1281 3584 2069 3584 
Q 2775 3584 3186 3129 
Q 3597 2675 3597 1894 
z
M 3022 2063 
Q 3016 2534 2758 2815 
Q 2500 3097 2075 3097 
Q 1594 3097 1305 2825 
Q 1016 2553 972 2059 
L 3022 2063 
z
" transform="scale(0.015625)"/>
      </defs>
      <use xlink:href="#DejaVuSans-74"/>
      <use xlink:href="#DejaVuSans-69" x="39.208984"/>
      <use xlink:href="#DejaVuSans-6d" x="66.992188"/>
      <use xlink:href="#DejaVuSans-65" x="164.404297"/>
     </g>
    </g>
   </g>
   <g id="matplotlib.axis_2">
    <g id="ytick_1">
     <g id="line2d_7">
      <defs>
       <path id="m39ba4208ba" d="M 0 0 
L -3.5 0 
" style="stroke: #000000; stroke-width: 0.8"/>
      </defs>
      <g>
       <use xlink:href="#m39ba4208ba" x="108" y="554.04028" style="stroke: #000000; stroke-width: 0.8"/>
      </g>
     </g>
     <g id="text_8">
      <!-- −1.00 -->
      <g transform="translate(70.354687 557.839499) scale(0.1 -0.1)">
       <defs>
        <path id="DejaVuSans-2212" d="M 678 2272 
L 4684 2272 
L 4684 1741 
L 678 1741 
L 678 2272 
z
" transform="scale(0.015625)"/>
        <path id="DejaVuSans-2e" d="M 684 794 
L 1344 794 
L 1344 0 
L 684 0 
L 684 794 
z
" transform="scale(0.015625)"/>
       </defs>
       <use xlink:href="#DejaVuSans-2212"/>
       <use xlink:href="#DejaVuSans-31" x="83.789062"/>
       <use xlink:href="#DejaVuSans-2e" x="147.412109"/>
       <use xlink:href="#DejaVuSans-30" x="179.199219"/>
       <use xlink:href="#DejaVuSans-30" x="242.822266"/>
      </g>
     </g>
    </g>
    <g id="ytick_2">
     <g id="line2d_8">
      <g>
       <use xlink:href="#m39ba4208ba" x="108" y="497.34021" style="stroke: #000000; stroke-width: 0.8"/>
      </g>
     </g>
     <g id="text_9">
      <!-- −0.75 -->
      <g transform="translate(70.354687 501.139429) scale(0.1 -0.1)">
       <defs>
        <path id="DejaVuSans-37" d="M 525 4666 
L 3525 4666 
L 3525 4397 
L 1831 0 
L 1172 0 
L 2766 4134 
L 525 4134 
L 525 4666 
z
" transform="scale(0.015625)"/>
        <path id="DejaVuSans-35" d="M 691 4666 
L 3169 4666 
L 3169 4134 
L 1269 4134 
L 1269 2991 
Q 1406 3038 1543 3061 
Q 1681 3084 1819 3084 
Q 2600 3084 3056 2656 
Q 3513 2228 3513 1497 
Q 3513 744 3044 326 
Q 2575 -91 1722 -91 
Q 1428 -91 1123 -41 
Q 819 9 494 109 
L 494 744 
Q 775 591 1075 516 
Q 1375 441 1709 441 
Q 2250 441 2565 725 
Q 2881 1009 2881 1497 
Q 2881 1984 2565 2268 
Q 2250 2553 1709 2553 
Q 1456 2553 1204 2497 
Q 953 2441 691 2322 
L 691 4666 
z
" transform="scale(0.015625)"/>
       </defs>
       <use xlink:href="#DejaVuSans-2212"/>
       <use xlink:href="#DejaVuSans-30" x="83.789062"/>
       <use xlink:href="#DejaVuSans-2e" x="147.412109"/>
       <use xlink:href="#DejaVuSans-37" x="179.199219"/>
       <use xlink:href="#DejaVuSans-35" x="242.822266"/>
      </g>
     </g>
    </g>
    <g id="ytick_3">
     <g id="line2d_9">
      <g>
       <use xlink:href="#m39ba4208ba" x="108" y="440.64014" style="stroke: #000000; stroke-width: 0.8"/>
      </g>
     </g>
     <g id="text_10">
      <!-- −0.50 -->
      <g transform="translate(70.354687 444.439359) scale(0.1 -0.1)">
       <use xlink:href="#DejaVuSans-2212"/>
       <use xlink:href="#DejaVuSans-30" x="83.789062"/>
       <use xlink:href="#DejaVuSans-2e" x="147.412109"/>
       <use xlink:href="#DejaVuSans-35" x="179.199219"/>
       <use xlink:href="#DejaVuSans-30" x="242.822266"/>
      </g>
     </g>
    </g>
    <g id="ytick_4">
     <g id="line2d_10">
      <g>
       <use xlink:href="#m39ba4208ba" x="108" y="383.94007" style="stroke: #000000; stroke-width: 0.8"/>
      </g>
     </g>
     <g id="text_11">
      <!-- −0.25 -->
      <g transform="translate(70.354687 387.739289) scale(0.1 -0.1)">
       <use xlink:href="#DejaVuSans-2212"/>
       <use xlink:href="#DejaVuSans-30" x="83.789062"/>
       <use xlink:href="#DejaVuSans-2e" x="147.412109"/>
       <use xlink:href="#DejaVuSans-32" x="179.199219"/>
       <use xlink:href="#DejaVuSans-35" x="242.822266"/>
      </g>
     </g>
    </g>
    <g id="ytick_5">
     <g id="line2d_11">
      <g>
       <use xlink:href="#m39ba4208ba" x="108" y="327.24" style="stroke: #000000; stroke-width: 0.8"/>
      </g>
     </g>
     <g id="text_12">
      <!-- 0.00 -->
      <g transform="translate(78.734375 331.039219) scale(0.1 -0.1)">
       <use xlink:href="#DejaVuSans-30"/>
       <use xlink:href="#DejaVuSans-2e" x="63.623047"/>
       <use xlink:href="#DejaVuSans-30" x="95.410156"/>
       <use xlink:href="#DejaVuSans-30" x="159.033203"/>
      </g>
     </g>
    </g>
    <g id="ytick_6">
     <g id="line2d_12">
      <g>
       <use xlink:href="#m39ba4208ba" x="108" y="270.53993" style="stroke: #000000; stroke-width: 0.8"/>
      </g>
     </g>
     <g id="text_13">
      <!-- 0.25 -->
      <g transform="translate(78.734375 274.339149) scale(0.1 -0.1)">
       <use xlink:href="#DejaVuSans-30"/>
       <use xlink:href="#DejaVuSans-2e" x="63.623047"/>
       <use xlink:href="#DejaVuSans-32" x="95.410156"/>
       <use xlink:href="#DejaVuSans-35" x="159.033203"/>
      </g>
     </g>
    </g>
    <g id="ytick_7">
     <g id="line2d_13">
      <g>
       <use xlink:href="#m39ba4208ba" x="108" y="213.83986" style="stroke: #000000; stroke-width: 0.8"/>
      </g>
     </g>
     <g id="text_14">
      <!-- 0.50 -->
      <g transform="translate(78.734375 217.639079) scale(0.1 -0.1)">
       <use xlink:href="#DejaVuSans-30"/>
       <use xlink:href="#DejaVuSans-2e" x="63.623047"/>
       <use xlink:href="#DejaVuSans-35" x="95.410156"/>
       <use xlink:href="#DejaVuSans-30" x="159.033203"/>
      </g>
     </g>
    </g>
    <g id="ytick_8">
     <g id="line2d_14">
      <g>
       <use xlink:href="#m39ba4208ba" x="108" y="157.13979" style="stroke: #000000; stroke-width: 0.8"/>
      </g>
     </g>
     <g id="text_15">
      <!-- 0.75 -->
      <g transform="translate(78.734375 160.939008) scale(0.1 -0.1)">
       <use xlink:href="#DejaVuSans-30"/>
       <use xlink:href="#DejaVuSans-2e" x="63.623047"/>
       <use xlink:href="#DejaVuSans-37" x="95.410156"/>
       <use xlink:href="#DejaVuSans-35" x="159.033203"/>
      </g>
     </g>
    </g>
    <g id="ytick_9">
     <g id="line2d_15">
      <g>
       <use xlink:href="#m39ba4208ba" x="108" y="100.43972" style="stroke: #000000; stroke-width: 0.8"/>
      </g>
     </g>
     <g id="text_16">
      <!-- 1.00 -->
      <g transform="translate(78.734375 104.238938) scale(0.1 -0.1)">
       <use xlink:href="#DejaVuSans-31"/>
       <use xlink:href="#DejaVuSans-2e" x="63.623047"/>
       <use xlink:href="#DejaVuSans-30" x="95.410156"/>
       <use xlink:href="#DejaVuSans-30" x="159.033203"/>
      </g>
     </g>
    </g>
    <g id="text_17">
     <!-- signal -->
     <g transform="translate(64.275 342.029844) rotate(-90) scale(0.1 -0.1)">
      <defs>
       <path id="DejaVuSans-73" d="M 2834 3397 
L 2834 2853 
Q 2591 2978 2328 3040 
Q 2066 3103 1784 3103 
Q 1356 3103 1142 2972 
Q 928 2841 928 2578 
Q 928 2378 1081 2264 
Q 1234 2150 1697 2047 
L 1894 2003 
Q 2506 1872 2764 1633 
Q 3022 1394 3022 966 
Q 3022 478 2636 193 
Q 2250 -91 1575 -91 
Q 1294 -91 989 -36 
Q 684 19 347 128 
L 347 722 
Q 666 556 975 473 
Q 1284 391 1588 391 
Q 1994 391 2212 530 
Q 2431 669 2431 922 
Q 2431 1156 2273 1281 
Q 2116 1406 1581 1522 
L 1381 1569 
Q 847 1681 609 1914 
Q 372 2147 372 2553 
Q 372 3047 722 3315 
Q 1072 3584 1716 3584 
Q 2034 3584 2315 3537 
Q 2597 3491 2834 3397 
z
" transform="scale(0.015625)"/>
       <path id="DejaVuSans-67" d="M 2906 1791 
Q 2906 2416 2648 2759 
Q 2391 3103 1925 3103 
Q 1463 3103 1205 2759 
Q 947 2416 947 1791 
Q 947 1169 1205 825 
Q 1463 481 1925 481 
Q 2391 481 2648 825 
Q 2906 1169 2906 1791 
z
M 3481 434 
Q 3481 -459 3084 -895 
Q 2688 -1331 1869 -1331 
Q 1566 -1331 1297 -1286 
Q 1028 -1241 775 -1147 
L 775 -588 
Q 1028 -725 1275 -790 
Q 1522 -856 1778 -856 
Q 2344 -856 2625 -561 
Q 2906 -266 2906 331 
L 2906 616 
Q 2728 306 2450 153 
Q 2172 0 1784 0 
Q 1141 0 747 490 
Q 353 981 353 1791 
Q 353 2603 747 3093 
Q 1141 3584 1784 3584 
Q 2172 3584 2450 3431 
Q 2728 3278 2906 2969 
L 2906 3500 
L 3481 3500 
L 3481 434 
z
" transform="scale(0.015625)"/>
       <path id="DejaVuSans-6e" d="M 3513 2113 
L 3513 0 
L 2938 0 
L 2938 2094 
Q 2938 2591 2744 2837 
Q 2550 3084 2163 3084 
Q 1697 3084 1428 2787 
Q 1159 2491 1159 1978 
L 1159 0 
L 581 0 
L 581 3500 
L 1159 3500 
L 1159 2956 
Q 1366 3272 1645 3428 
Q 1925 3584 2291 3584 
Q 2894 3584 3203 3211 
Q 3513 2838 3513 2113 
z
" transform="scale(0.015625)"/>
       <path id="DejaVuSans-61" d="M 2194 1759 
Q 1497 1759 1228 1600 
Q 959 1441 959 1056 
Q 959 750 1161 570 
Q 1363 391 1709 391 
Q 2188 391 2477 730 
Q 2766 1069 2766 1631 
L 2766 1759 
L 2194 1759 
z
M 3341 1997 
L 3341 0 
L 2766 0 
L 2766 531 
Q 2569 213 2275 61 
Q 1981 -91 1556 -91 
Q 1019 -91 701 211 
Q 384 513 384 1019 
Q 384 1609 779 1909 
Q 1175 2209 1959 2209 
L 2766 2209 
L 2766 2266 
Q 2766 2663 2505 2880 
Q 2244 3097 1772 3097 
Q 1472 3097 1187 3025 
Q 903 2953 641 2809 
L 641 3341 
Q 956 3463 1253 3523 
Q 1550 3584 1831 3584 
Q 2591 3584 2966 3190 
Q 3341 2797 3341 1997 
z
" transform="scale(0.015625)"/>
       <path id="DejaVuSans-6c" d="M 603 4863 
L 1178 4863 
L 1178 0 
L 603 0 
L 603 4863 
z
" transform="scale(0.015625)"/>
      </defs>
      <use xlink:href="#DejaVuSans-73"/>
      <use xlink:href="#DejaVuSans-69" x="52.099609"/>
      <use xlink:href="#DejaVuSans-67" x="79.882812"/>
      <use xlink:href="#DejaVuSans-6e" x="143.359375"/>
      <use xlink:href="#DejaVuSans-61" x="206.738281"/>
      <use xlink:href="#DejaVuSans-6c" x="268.017578"/>
     </g>
    </g>
   </g>
   <g id="line2d_16">
    <path d="M 138.436364 327.24 
L 144.52973 257.087031 
L 147.576413 224.179515 
L 150.623096 193.814764 
L 153.060442 171.859788 
L 154.888452 156.987311 
L 156.716462 143.629033 
L 158.544472 131.903762 
L 160.372482 121.915778 
L 161.591155 116.266811 
L 162.809828 111.452126 
L 164.028501 107.490763 
L 165.247174 104.398385 
L 166.465848 102.187223 
L 167.075184 101.414967 
L 167.684521 100.86602 
L 168.293857 100.540924 
L 168.903194 100.44 
L 169.512531 100.563349 
L 170.121867 100.910848 
L 170.731204 101.482155 
L 171.340541 102.276703 
L 171.949877 103.293708 
L 173.16855 105.990844 
L 174.387224 109.562898 
L 175.605897 113.995745 
L 176.82457 119.271854 
L 178.043243 125.370362 
L 179.871253 136.006501 
L 181.699263 148.343439 
L 183.527273 162.271454 
L 185.355283 177.666673 
L 187.792629 200.237562 
L 190.229975 224.815361 
L 193.276658 257.765626 
L 197.542015 306.585067 
L 205.463391 398.070872 
L 208.510074 430.935311 
L 211.556757 461.241325 
L 213.994103 483.138995 
L 215.822113 497.963058 
L 217.650123 511.268738 
L 219.478133 522.937697 
L 221.306143 532.866152 
L 222.524816 538.473909 
L 223.743489 543.246352 
L 224.962162 547.16461 
L 226.180835 550.213188 
L 227.399509 552.380031 
L 228.008845 553.129987 
L 228.618182 553.65657 
L 229.227518 553.95926 
L 229.836855 554.037757 
L 230.446192 553.891984 
L 231.055528 553.522085 
L 231.664865 552.928425 
L 232.274201 552.111592 
L 232.883538 551.072393 
L 234.102211 548.331229 
L 235.320885 544.715771 
L 236.539558 540.240317 
L 237.758231 534.922565 
L 238.976904 528.783544 
L 240.804914 518.089101 
L 242.632924 505.697278 
L 244.460934 491.718285 
L 246.288943 476.276448 
L 248.72629 453.650896 
L 251.163636 429.02778 
L 254.210319 396.035091 
L 258.475676 347.184569 
L 266.397052 255.731927 
L 269.443735 222.910887 
L 271.881081 198.470492 
L 274.318428 176.064932 
L 276.755774 156.048262 
L 278.583784 142.79531 
L 280.411794 131.18278 
L 282.239803 121.31395 
L 283.458477 115.74746 
L 284.67715 111.017305 
L 285.895823 107.142192 
L 287.114496 104.137443 
L 288.33317 102.014941 
L 288.942506 101.287293 
L 289.551843 100.783079 
L 290.161179 100.502799 
L 290.770516 100.446729 
L 291.379853 100.614925 
L 291.989189 101.00722 
L 292.598526 101.623227 
L 293.207862 102.462337 
L 294.426536 104.806324 
L 295.645209 108.029914 
L 296.863882 112.120357 
L 298.082555 117.06148 
L 299.301229 122.833742 
L 300.519902 129.414318 
L 302.347912 140.742995 
L 304.175921 153.730347 
L 306.003931 168.260865 
L 308.441278 189.810171 
L 310.878624 213.531164 
L 313.925307 245.662495 
L 317.581327 286.803399 
L 329.158722 419.357653 
L 332.205405 450.674548 
L 334.642752 473.570052 
L 337.080098 494.153228 
L 338.908108 507.875959 
L 340.736118 519.992143 
L 342.564128 530.39402 
L 343.782801 536.329875 
L 345.001474 541.438895 
L 346.220147 545.700877 
L 347.438821 549.098968 
L 348.657494 551.619729 
L 349.26683 552.54786 
L 349.876167 553.253193 
L 350.485504 553.735032 
L 351.09484 553.9929 
L 351.704177 554.026543 
L 352.313514 553.835926 
L 352.92285 553.421238 
L 353.532187 552.78289 
L 354.141523 551.921512 
L 355.360197 549.533295 
L 356.57887 546.266031 
L 357.797543 542.132641 
L 359.016216 537.14947 
L 360.234889 531.336223 
L 362.062899 521.111123 
L 363.890909 509.161765 
L 365.718919 495.594425 
L 367.546929 480.529767 
L 369.984275 458.347744 
L 372.421622 434.093938 
L 375.468305 401.449741 
L 379.733661 352.861372 
L 388.87371 247.662574 
L 391.920393 215.387531 
L 394.35774 191.518383 
L 396.795086 169.793929 
L 398.623096 155.115985 
L 400.451106 141.968884 
L 402.279115 130.469554 
L 404.107125 120.720268 
L 405.325799 115.236475 
L 406.544472 110.591038 
L 407.763145 106.802327 
L 408.981818 103.885326 
L 410.200491 101.851568 
L 410.809828 101.168556 
L 411.419165 100.709096 
L 412.028501 100.473643 
L 412.637838 100.462429 
L 413.247174 100.675465 
L 413.856511 101.112541 
L 414.465848 101.773224 
L 415.075184 102.656862 
L 416.293857 105.089284 
L 417.512531 108.40019 
L 418.731204 112.576485 
L 419.949877 117.601656 
L 421.16855 123.45583 
L 422.99656 133.739958 
L 424.82457 145.745044 
L 426.65258 159.364316 
L 428.48059 174.476647 
L 430.917936 196.714884 
L 433.355283 221.015699 
L 436.401966 253.704591 
L 440.667322 302.327415 
L 449.198034 400.775409 
L 452.244717 433.464301 
L 454.682064 457.765116 
L 457.11941 480.003353 
L 458.94742 495.115684 
L 460.77543 508.734956 
L 462.60344 520.740042 
L 464.43145 531.02417 
L 465.650123 536.878344 
L 466.868796 541.903515 
L 468.087469 546.07981 
L 469.306143 549.390716 
L 470.524816 551.823138 
L 471.134152 552.706776 
L 471.743489 553.367459 
L 472.352826 553.804535 
L 472.962162 554.017571 
L 473.571499 554.006357 
L 474.180835 553.770904 
L 474.790172 553.311444 
L 475.399509 552.628432 
L 476.008845 551.722544 
L 477.227518 549.24594 
L 478.446192 545.891425 
L 479.664865 541.672265 
L 480.883538 536.605145 
L 482.102211 530.710101 
L 483.930221 520.367047 
L 485.758231 508.306353 
L 487.586241 494.635284 
L 489.414251 479.475429 
L 491.851597 457.181196 
L 494.288943 432.833614 
L 497.335627 400.100348 
L 501.600983 351.443551 
L 510.131695 253.030259 
L 513.178378 220.386062 
L 515.615725 196.132256 
L 518.053071 173.950233 
L 519.881081 158.885575 
L 521.709091 145.318235 
L 523.537101 133.368877 
L 525.365111 123.143777 
L 526.583784 117.33053 
L 527.802457 112.347359 
L 529.02113 108.213969 
L 530.239803 104.946705 
L 531.458477 102.558488 
L 532.067813 101.69711 
L 532.67715 101.058762 
L 533.286486 100.644074 
L 533.895823 100.453457 
L 534.50516 100.4871 
L 535.114496 100.744968 
L 535.723833 101.226807 
L 536.33317 101.93214 
L 536.942506 102.860271 
L 538.161179 105.381032 
L 539.379853 108.779123 
L 540.598526 113.041105 
L 541.817199 118.150125 
L 543.035872 124.08598 
L 544.863882 134.487857 
L 546.691892 146.604041 
L 548.519902 160.326772 
L 550.347912 175.534002 
L 552.785258 197.884009 
L 555.222604 222.278118 
L 558.269287 255.055432 
L 562.534644 303.745722 
L 571.065356 402.12334 
L 574.112039 434.722518 
L 576.549386 458.929077 
L 578.986732 481.054666 
L 580.814742 496.0715 
L 582.642752 509.586775 
L 584.470762 521.480287 
L 586.298771 531.646258 
L 587.517445 537.41852 
L 588.736118 542.359643 
L 589.954791 546.450086 
L 591.173464 549.673676 
L 592.392138 552.017663 
L 593.001474 552.856773 
L 593.610811 553.47278 
L 594.220147 553.865075 
L 594.829484 554.033271 
L 595.438821 553.977201 
L 596.048157 553.696921 
L 596.657494 553.192707 
L 597.26683 552.465059 
L 597.876167 551.514696 
L 599.09484 548.949802 
L 600.313514 545.508169 
L 601.532187 541.203407 
L 602.75086 536.052538 
L 603.969533 530.075931 
L 605.797543 519.615332 
L 607.625553 507.443778 
L 609.453563 493.669522 
L 611.281572 478.415068 
L 613.718919 456.009508 
L 616.156265 431.569113 
L 619.202948 398.748073 
L 623.468305 350.024773 
L 631.999017 251.683801 
L 635.0457 219.129965 
L 637.483047 194.970894 
L 639.920393 172.901958 
L 641.748403 157.933094 
L 643.576413 144.470019 
L 645.404423 132.63247 
L 647.232432 122.525729 
L 648.451106 116.794508 
L 649.669779 111.895483 
L 650.888452 107.848026 
L 652.107125 104.668143 
L 653.325799 102.368408 
L 653.935135 101.551575 
L 654.544472 100.957915 
L 655.153808 100.588016 
L 655.763145 100.442243 
L 656.372482 100.52074 
L 656.981818 100.82343 
L 657.591155 101.350013 
L 658.200491 102.099969 
L 658.809828 103.072555 
L 660.028501 105.681556 
L 661.247174 109.166697 
L 662.465848 113.514198 
L 663.684521 118.706865 
L 664.903194 124.724165 
L 666.731204 135.243382 
L 668.559214 147.470185 
L 670.387224 161.295831 
L 672.215233 176.597358 
L 674.65258 199.05825 
L 677.089926 223.544689 
L 680.136609 256.409128 
L 684.401966 305.164958 
L 692.932678 403.46831 
L 695.979361 435.976483 
L 698.416708 460.087828 
L 700.854054 482.099893 
L 702.682064 497.020637 
L 704.510074 510.43138 
L 706.338084 522.212848 
L 708.166093 532.26026 
L 709.384767 537.950382 
L 710.60344 542.807261 
L 711.822113 546.811691 
L 713.040786 549.947837 
L 714.259459 552.203297 
L 714.868796 552.997845 
L 715.478133 553.569152 
L 716.087469 553.916651 
L 716.696806 554.04 
L 717.306143 553.939076 
L 717.915479 553.61398 
L 718.524816 553.065033 
L 719.134152 552.292777 
L 719.743489 551.297976 
L 720.962162 548.644895 
L 722.180835 545.11628 
L 723.399509 540.726085 
L 724.618182 535.49167 
L 725.836855 529.433737 
L 727.664865 518.856006 
L 729.492875 506.574075 
L 731.320885 492.697176 
L 733.148894 477.348727 
L 735.586241 454.832725 
L 738.023587 430.300485 
L 741.07027 397.392969 
L 745.335627 348.605094 
L 747.163636 327.24 
L 747.163636 327.24 
" clip-path="url(#p590e50621b)" style="fill: none; stroke: #ff0000; stroke-width: 1.5; stroke-linecap: square"/>
   </g>
   <g id="patch_3">
    <path d="M 108 576.72 
L 108 77.76 
" style="fill: none; stroke: #000000; stroke-width: 0.8; stroke-linejoin: miter; stroke-linecap: square"/>
   </g>
   <g id="patch_4">
    <path d="M 777.6 576.72 
L 777.6 77.76 
" style="fill: none; stroke: #000000; stroke-width: 0.8; stroke-linejoin: miter; stroke-linecap: square"/>
   </g>
   <g id="patch_5">
    <path d="M 108 576.72 
L 777.6 576.72 
" style="fill: none; stroke: #000000; stroke-width: 0.8; stroke-linejoin: miter; stroke-linecap: square"/>
   </g>
   <g id="patch_6">
    <path d="M 108 77.76 
L 777.6 77.76 
" style="fill: none; stroke: #000000; stroke-width: 0.8; stroke-linejoin: miter; stroke-linecap: square"/>
   </g>
   <g id="text_18">
    <!-- signal -->
    <g transform="translate(425.052188 71.76) scale(0.12 -0.12)">
     <use xlink:href="#DejaVuSans-73"/>
     <use xlink:href="#DejaVuSans-69" x="52.099609"/>
     <use xlink:href="#DejaVuSans-67" x="79.882812"/>
     <use xlink:href="#DejaVuSans-6e" x="143.359375"/>
     <use xlink:href="#DejaVuSans-61" x="206.738281"/>
     <use xlink:href="#DejaVuSans-6c" x="268.017578"/>
    </g>
   </g>
  </g>
 </g>
 <defs>
  <clipPath id="p590e50621b">
   <rect x="108" y="77.76" width="669.6" height="498.96"/>
  </clipPath>
 </defs>
</svg>
