<?xml version="1.0" encoding="utf-8" standalone="no"?>
<!DOCTYPE svg PUBLIC "-//W3C//DTD SVG 1.1//EN"
  "http://www.w3.org/Graphics/SVG/1.1/DTD/svg11.dtd">
<svg xmlns:xlink="http://www.w3.org/1999/xlink" width="460.8pt" height="345.6pt" viewBox="0 0 460.8 345.6" xmlns="http://www.w3.org/2000/svg" version="1.1">
 <metadata>
  <rdf:RDF xmlns:dc="http://purl.org/dc/elements/1.1/" xmlns:cc="http://creativecommons.org/ns#" xmlns:rdf="http://www.w3.org/1999/02/22-rdf-syntax-ns#">
   <cc:Work>
    <dc:type rdf:resource="http://purl.org/dc/dcmitype/StillImage"/>
    <dc:date>2024-03-30T07:59:42.701024</dc:date>
    <dc:format>image/svg+xml</dc:format>
    <dc:creator>
     <cc:Agent>
      <dc:title>Matplotlib v3.7.1, https://matplotlib.org/</dc:title>
     </cc:Agent>
    </dc:creator>
   </cc:Work>
  </rdf:RDF>
 </metadata>
 <defs>
  <style type="text/css">*{stroke-linejoin: round; stroke-linecap: butt}</style>
 </defs>
 <g id="figure_1">
  <g id="patch_1">
   <path d="M 0 345.6 
L 460.8 345.6 
L 460.8 0 
L 0 0 
z
" style="fill: #ffffff"/>
  </g>
  <g id="axes_1">
   <g id="patch_2">
    <path d="M 57.6 307.584 
L 414.72 307.584 
L 414.72 41.472 
L 57.6 41.472 
z
" style="fill: #ffffff"/>
   </g>
   <g id="matplotlib.axis_1">
    <g id="xtick_1">
     <g id="line2d_1">
      <defs>
       <path id="m70e5886720" d="M 0 0 
L 0 3.5 
" style="stroke: #000000; stroke-width: 0.8"/>
      </defs>
      <g>
       <use xlink:href="#m70e5886720" x="73.832727" y="307.584" style="stroke: #000000; stroke-width: 0.8"/>
      </g>
     </g>
     <g id="text_1">
      <!-- 0 -->
      <g transform="translate(70.651477 322.182437) scale(0.1 -0.1)">
       <defs>
        <path id="DejaVuSans-30" d="M 2034 4250 
Q 1547 4250 1301 3770 
Q 1056 3291 1056 2328 
Q 1056 1369 1301 889 
Q 1547 409 2034 409 
Q 2525 409 2770 889 
Q 3016 1369 3016 2328 
Q 3016 3291 2770 3770 
Q 2525 4250 2034 4250 
z
M 2034 4750 
Q 2819 4750 3233 4129 
Q 3647 3509 3647 2328 
Q 3647 1150 3233 529 
Q 2819 -91 2034 -91 
Q 1250 -91 836 529 
Q 422 1150 422 2328 
Q 422 3509 836 4129 
Q 1250 4750 2034 4750 
z
" transform="scale(0.015625)"/>
       </defs>
       <use xlink:href="#DejaVuSans-30"/>
      </g>
     </g>
    </g>
    <g id="xtick_2">
     <g id="line2d_2">
      <g>
       <use xlink:href="#m70e5886720" x="138.893758" y="307.584" style="stroke: #000000; stroke-width: 0.8"/>
      </g>
     </g>
     <g id="text_2">
      <!-- 200 -->
      <g transform="translate(129.350008 322.182437) scale(0.1 -0.1)">
       <defs>
        <path id="DejaVuSans-32" d="M 1228 531 
L 3431 531 
L 3431 0 
L 469 0 
L 469 531 
Q 828 903 1448 1529 
Q 2069 2156 2228 2338 
Q 2531 2678 2651 2914 
Q 2772 3150 2772 3378 
Q 2772 3750 2511 3984 
Q 2250 4219 1831 4219 
Q 1534 4219 1204 4116 
Q 875 4013 500 3803 
L 500 4441 
Q 881 4594 1212 4672 
Q 1544 4750 1819 4750 
Q 2544 4750 2975 4387 
Q 3406 4025 3406 3419 
Q 3406 3131 3298 2873 
Q 3191 2616 2906 2266 
Q 2828 2175 2409 1742 
Q 1991 1309 1228 531 
z
" transform="scale(0.015625)"/>
       </defs>
       <use xlink:href="#DejaVuSans-32"/>
       <use xlink:href="#DejaVuSans-30" x="63.623047"/>
       <use xlink:href="#DejaVuSans-30" x="127.246094"/>
      </g>
     </g>
    </g>
    <g id="xtick_3">
     <g id="line2d_3">
      <g>
       <use xlink:href="#m70e5886720" x="203.95479" y="307.584" style="stroke: #000000; stroke-width: 0.8"/>
      </g>
     </g>
     <g id="text_3">
      <!-- 400 -->
      <g transform="translate(194.41104 322.182437) scale(0.1 -0.1)">
       <defs>
        <path id="DejaVuSans-34" d="M 2419 4116 
L 825 1625 
L 2419 1625 
L 2419 4116 
z
M 2253 4666 
L 3047 4666 
L 3047 1625 
L 3713 1625 
L 3713 1100 
L 3047 1100 
L 3047 0 
L 2419 0 
L 2419 1100 
L 313 1100 
L 313 1709 
L 2253 4666 
z
" transform="scale(0.015625)"/>
       </defs>
       <use xlink:href="#DejaVuSans-34"/>
       <use xlink:href="#DejaVuSans-30" x="63.623047"/>
       <use xlink:href="#DejaVuSans-30" x="127.246094"/>
      </g>
     </g>
    </g>
    <g id="xtick_4">
     <g id="line2d_4">
      <g>
       <use xlink:href="#m70e5886720" x="269.015821" y="307.584" style="stroke: #000000; stroke-width: 0.8"/>
      </g>
     </g>
     <g id="text_4">
      <!-- 600 -->
      <g transform="translate(259.472071 322.182437) scale(0.1 -0.1)">
       <defs>
        <path id="DejaVuSans-36" d="M 2113 2584 
Q 1688 2584 1439 2293 
Q 1191 2003 1191 1497 
Q 1191 994 1439 701 
Q 1688 409 2113 409 
Q 2538 409 2786 701 
Q 3034 994 3034 1497 
Q 3034 2003 2786 2293 
Q 2538 2584 2113 2584 
z
M 3366 4563 
L 3366 3988 
Q 3128 4100 2886 4159 
Q 2644 4219 2406 4219 
Q 1781 4219 1451 3797 
Q 1122 3375 1075 2522 
Q 1259 2794 1537 2939 
Q 1816 3084 2150 3084 
Q 2853 3084 3261 2657 
Q 3669 2231 3669 1497 
Q 3669 778 3244 343 
Q 2819 -91 2113 -91 
Q 1303 -91 875 529 
Q 447 1150 447 2328 
Q 447 3434 972 4092 
Q 1497 4750 2381 4750 
Q 2619 4750 2861 4703 
Q 3103 4656 3366 4563 
z
" transform="scale(0.015625)"/>
       </defs>
       <use xlink:href="#DejaVuSans-36"/>
       <use xlink:href="#DejaVuSans-30" x="63.623047"/>
       <use xlink:href="#DejaVuSans-30" x="127.246094"/>
      </g>
     </g>
    </g>
    <g id="xtick_5">
     <g id="line2d_5">
      <g>
       <use xlink:href="#m70e5886720" x="334.076852" y="307.584" style="stroke: #000000; stroke-width: 0.8"/>
      </g>
     </g>
     <g id="text_5">
      <!-- 800 -->
      <g transform="translate(324.533102 322.182437) scale(0.1 -0.1)">
       <defs>
        <path id="DejaVuSans-38" d="M 2034 2216 
Q 1584 2216 1326 1975 
Q 1069 1734 1069 1313 
Q 1069 891 1326 650 
Q 1584 409 2034 409 
Q 2484 409 2743 651 
Q 3003 894 3003 1313 
Q 3003 1734 2745 1975 
Q 2488 2216 2034 2216 
z
M 1403 2484 
Q 997 2584 770 2862 
Q 544 3141 544 3541 
Q 544 4100 942 4425 
Q 1341 4750 2034 4750 
Q 2731 4750 3128 4425 
Q 3525 4100 3525 3541 
Q 3525 3141 3298 2862 
Q 3072 2584 2669 2484 
Q 3125 2378 3379 2068 
Q 3634 1759 3634 1313 
Q 3634 634 3220 271 
Q 2806 -91 2034 -91 
Q 1263 -91 848 271 
Q 434 634 434 1313 
Q 434 1759 690 2068 
Q 947 2378 1403 2484 
z
M 1172 3481 
Q 1172 3119 1398 2916 
Q 1625 2713 2034 2713 
Q 2441 2713 2670 2916 
Q 2900 3119 2900 3481 
Q 2900 3844 2670 4047 
Q 2441 4250 2034 4250 
Q 1625 4250 1398 4047 
Q 1172 3844 1172 3481 
z
" transform="scale(0.015625)"/>
       </defs>
       <use xlink:href="#DejaVuSans-38"/>
       <use xlink:href="#DejaVuSans-30" x="63.623047"/>
       <use xlink:href="#DejaVuSans-30" x="127.246094"/>
      </g>
     </g>
    </g>
    <g id="xtick_6">
     <g id="line2d_6">
      <g>
       <use xlink:href="#m70e5886720" x="399.137883" y="307.584" style="stroke: #000000; stroke-width: 0.8"/>
      </g>
     </g>
     <g id="text_6">
      <!-- 1000 -->
      <g transform="translate(386.412883 322.182437) scale(0.1 -0.1)">
       <defs>
        <path id="DejaVuSans-31" d="M 794 531 
L 1825 531 
L 1825 4091 
L 703 3866 
L 703 4441 
L 1819 4666 
L 2450 4666 
L 2450 531 
L 3481 531 
L 3481 0 
L 794 0 
L 794 531 
z
" transform="scale(0.015625)"/>
       </defs>
       <use xlink:href="#DejaVuSans-31"/>
       <use xlink:href="#DejaVuSans-30" x="63.623047"/>
       <use xlink:href="#DejaVuSans-30" x="127.246094"/>
       <use xlink:href="#DejaVuSans-30" x="190.869141"/>
      </g>
     </g>
    </g>
    <g id="text_7">
     <!-- $\tau$ -->
     <g transform="translate(233.11 335.860562) scale(0.1 -0.1)">
      <defs>
       <path id="DejaVuSans-Oblique-3c4" d="M 2103 638 
Q 2188 488 2525 488 
L 2800 488 
L 2706 0 
L 2363 0 
Q 1800 0 1600 300 
Q 1403 606 1534 1269 
L 1856 2925 
L 541 2925 
L 653 3500 
L 3881 3500 
L 3769 2925 
L 2444 2925 
L 2113 1234 
Q 2025 781 2103 638 
z
" transform="scale(0.015625)"/>
      </defs>
      <use xlink:href="#DejaVuSans-Oblique-3c4" transform="translate(0 0.3125)"/>
     </g>
    </g>
   </g>
   <g id="matplotlib.axis_2">
    <g id="ytick_1">
     <g id="line2d_7">
      <defs>
       <path id="m3b53267bed" d="M 0 0 
L -3.5 0 
" style="stroke: #000000; stroke-width: 0.8"/>
      </defs>
      <g>
       <use xlink:href="#m3b53267bed" x="57.6" y="295.487743" style="stroke: #000000; stroke-width: 0.8"/>
      </g>
     </g>
     <g id="text_8">
      <!-- 1.0 -->
      <g transform="translate(34.696875 299.286962) scale(0.1 -0.1)">
       <defs>
        <path id="DejaVuSans-2e" d="M 684 794 
L 1344 794 
L 1344 0 
L 684 0 
L 684 794 
z
" transform="scale(0.015625)"/>
       </defs>
       <use xlink:href="#DejaVuSans-31"/>
       <use xlink:href="#DejaVuSans-2e" x="63.623047"/>
       <use xlink:href="#DejaVuSans-30" x="95.410156"/>
      </g>
     </g>
    </g>
    <g id="ytick_2">
     <g id="line2d_8">
      <g>
       <use xlink:href="#m3b53267bed" x="57.6" y="253.876308" style="stroke: #000000; stroke-width: 0.8"/>
      </g>
     </g>
     <g id="text_9">
      <!-- 1.5 -->
      <g transform="translate(34.696875 257.675527) scale(0.1 -0.1)">
       <defs>
        <path id="DejaVuSans-35" d="M 691 4666 
L 3169 4666 
L 3169 4134 
L 1269 4134 
L 1269 2991 
Q 1406 3038 1543 3061 
Q 1681 3084 1819 3084 
Q 2600 3084 3056 2656 
Q 3513 2228 3513 1497 
Q 3513 744 3044 326 
Q 2575 -91 1722 -91 
Q 1428 -91 1123 -41 
Q 819 9 494 109 
L 494 744 
Q 775 591 1075 516 
Q 1375 441 1709 441 
Q 2250 441 2565 725 
Q 2881 1009 2881 1497 
Q 2881 1984 2565 2268 
Q 2250 2553 1709 2553 
Q 1456 2553 1204 2497 
Q 953 2441 691 2322 
L 691 4666 
z
" transform="scale(0.015625)"/>
       </defs>
       <use xlink:href="#DejaVuSans-31"/>
       <use xlink:href="#DejaVuSans-2e" x="63.623047"/>
       <use xlink:href="#DejaVuSans-35" x="95.410156"/>
      </g>
     </g>
    </g>
    <g id="ytick_3">
     <g id="line2d_9">
      <g>
       <use xlink:href="#m3b53267bed" x="57.6" y="212.264873" style="stroke: #000000; stroke-width: 0.8"/>
      </g>
     </g>
     <g id="text_10">
      <!-- 2.0 -->
      <g transform="translate(34.696875 216.064091) scale(0.1 -0.1)">
       <use xlink:href="#DejaVuSans-32"/>
       <use xlink:href="#DejaVuSans-2e" x="63.623047"/>
       <use xlink:href="#DejaVuSans-30" x="95.410156"/>
      </g>
     </g>
    </g>
    <g id="ytick_4">
     <g id="line2d_10">
      <g>
       <use xlink:href="#m3b53267bed" x="57.6" y="170.653437" style="stroke: #000000; stroke-width: 0.8"/>
      </g>
     </g>
     <g id="text_11">
      <!-- 2.5 -->
      <g transform="translate(34.696875 174.452656) scale(0.1 -0.1)">
       <use xlink:href="#DejaVuSans-32"/>
       <use xlink:href="#DejaVuSans-2e" x="63.623047"/>
       <use xlink:href="#DejaVuSans-35" x="95.410156"/>
      </g>
     </g>
    </g>
    <g id="ytick_5">
     <g id="line2d_11">
      <g>
       <use xlink:href="#m3b53267bed" x="57.6" y="129.042002" style="stroke: #000000; stroke-width: 0.8"/>
      </g>
     </g>
     <g id="text_12">
      <!-- 3.0 -->
      <g transform="translate(34.696875 132.841221) scale(0.1 -0.1)">
       <defs>
        <path id="DejaVuSans-33" d="M 2597 2516 
Q 3050 2419 3304 2112 
Q 3559 1806 3559 1356 
Q 3559 666 3084 287 
Q 2609 -91 1734 -91 
Q 1441 -91 1130 -33 
Q 819 25 488 141 
L 488 750 
Q 750 597 1062 519 
Q 1375 441 1716 441 
Q 2309 441 2620 675 
Q 2931 909 2931 1356 
Q 2931 1769 2642 2001 
Q 2353 2234 1838 2234 
L 1294 2234 
L 1294 2753 
L 1863 2753 
Q 2328 2753 2575 2939 
Q 2822 3125 2822 3475 
Q 2822 3834 2567 4026 
Q 2313 4219 1838 4219 
Q 1578 4219 1281 4162 
Q 984 4106 628 3988 
L 628 4550 
Q 988 4650 1302 4700 
Q 1616 4750 1894 4750 
Q 2613 4750 3031 4423 
Q 3450 4097 3450 3541 
Q 3450 3153 3228 2886 
Q 3006 2619 2597 2516 
z
" transform="scale(0.015625)"/>
       </defs>
       <use xlink:href="#DejaVuSans-33"/>
       <use xlink:href="#DejaVuSans-2e" x="63.623047"/>
       <use xlink:href="#DejaVuSans-30" x="95.410156"/>
      </g>
     </g>
    </g>
    <g id="ytick_6">
     <g id="line2d_12">
      <g>
       <use xlink:href="#m3b53267bed" x="57.6" y="87.430567" style="stroke: #000000; stroke-width: 0.8"/>
      </g>
     </g>
     <g id="text_13">
      <!-- 3.5 -->
      <g transform="translate(34.696875 91.229786) scale(0.1 -0.1)">
       <use xlink:href="#DejaVuSans-33"/>
       <use xlink:href="#DejaVuSans-2e" x="63.623047"/>
       <use xlink:href="#DejaVuSans-35" x="95.410156"/>
      </g>
     </g>
    </g>
    <g id="ytick_7">
     <g id="line2d_13">
      <g>
       <use xlink:href="#m3b53267bed" x="57.6" y="45.819132" style="stroke: #000000; stroke-width: 0.8"/>
      </g>
     </g>
     <g id="text_14">
      <!-- 4.0 -->
      <g transform="translate(34.696875 49.61835) scale(0.1 -0.1)">
       <use xlink:href="#DejaVuSans-34"/>
       <use xlink:href="#DejaVuSans-2e" x="63.623047"/>
       <use xlink:href="#DejaVuSans-30" x="95.410156"/>
      </g>
     </g>
    </g>
    <g id="text_15">
     <!-- mutual information -->
     <g transform="translate(28.617187 222.595188) rotate(-90) scale(0.1 -0.1)">
      <defs>
       <path id="DejaVuSans-6d" d="M 3328 2828 
Q 3544 3216 3844 3400 
Q 4144 3584 4550 3584 
Q 5097 3584 5394 3201 
Q 5691 2819 5691 2113 
L 5691 0 
L 5113 0 
L 5113 2094 
Q 5113 2597 4934 2840 
Q 4756 3084 4391 3084 
Q 3944 3084 3684 2787 
Q 3425 2491 3425 1978 
L 3425 0 
L 2847 0 
L 2847 2094 
Q 2847 2600 2669 2842 
Q 2491 3084 2119 3084 
Q 1678 3084 1418 2786 
Q 1159 2488 1159 1978 
L 1159 0 
L 581 0 
L 581 3500 
L 1159 3500 
L 1159 2956 
Q 1356 3278 1631 3431 
Q 1906 3584 2284 3584 
Q 2666 3584 2933 3390 
Q 3200 3197 3328 2828 
z
" transform="scale(0.015625)"/>
       <path id="DejaVuSans-75" d="M 544 1381 
L 544 3500 
L 1119 3500 
L 1119 1403 
Q 1119 906 1312 657 
Q 1506 409 1894 409 
Q 2359 409 2629 706 
Q 2900 1003 2900 1516 
L 2900 3500 
L 3475 3500 
L 3475 0 
L 2900 0 
L 2900 538 
Q 2691 219 2414 64 
Q 2138 -91 1772 -91 
Q 1169 -91 856 284 
Q 544 659 544 1381 
z
M 1991 3584 
L 1991 3584 
z
" transform="scale(0.015625)"/>
       <path id="DejaVuSans-74" d="M 1172 4494 
L 1172 3500 
L 2356 3500 
L 2356 3053 
L 1172 3053 
L 1172 1153 
Q 1172 725 1289 603 
Q 1406 481 1766 481 
L 2356 481 
L 2356 0 
L 1766 0 
Q 1100 0 847 248 
Q 594 497 594 1153 
L 594 3053 
L 172 3053 
L 172 3500 
L 594 3500 
L 594 4494 
L 1172 4494 
z
" transform="scale(0.015625)"/>
       <path id="DejaVuSans-61" d="M 2194 1759 
Q 1497 1759 1228 1600 
Q 959 1441 959 1056 
Q 959 750 1161 570 
Q 1363 391 1709 391 
Q 2188 391 2477 730 
Q 2766 1069 2766 1631 
L 2766 1759 
L 2194 1759 
z
M 3341 1997 
L 3341 0 
L 2766 0 
L 2766 531 
Q 2569 213 2275 61 
Q 1981 -91 1556 -91 
Q 1019 -91 701 211 
Q 384 513 384 1019 
Q 384 1609 779 1909 
Q 1175 2209 1959 2209 
L 2766 2209 
L 2766 2266 
Q 2766 2663 2505 2880 
Q 2244 3097 1772 3097 
Q 1472 3097 1187 3025 
Q 903 2953 641 2809 
L 641 3341 
Q 956 3463 1253 3523 
Q 1550 3584 1831 3584 
Q 2591 3584 2966 3190 
Q 3341 2797 3341 1997 
z
" transform="scale(0.015625)"/>
       <path id="DejaVuSans-6c" d="M 603 4863 
L 1178 4863 
L 1178 0 
L 603 0 
L 603 4863 
z
" transform="scale(0.015625)"/>
       <path id="DejaVuSans-20" transform="scale(0.015625)"/>
       <path id="DejaVuSans-69" d="M 603 3500 
L 1178 3500 
L 1178 0 
L 603 0 
L 603 3500 
z
M 603 4863 
L 1178 4863 
L 1178 4134 
L 603 4134 
L 603 4863 
z
" transform="scale(0.015625)"/>
       <path id="DejaVuSans-6e" d="M 3513 2113 
L 3513 0 
L 2938 0 
L 2938 2094 
Q 2938 2591 2744 2837 
Q 2550 3084 2163 3084 
Q 1697 3084 1428 2787 
Q 1159 2491 1159 1978 
L 1159 0 
L 581 0 
L 581 3500 
L 1159 3500 
L 1159 2956 
Q 1366 3272 1645 3428 
Q 1925 3584 2291 3584 
Q 2894 3584 3203 3211 
Q 3513 2838 3513 2113 
z
" transform="scale(0.015625)"/>
       <path id="DejaVuSans-66" d="M 2375 4863 
L 2375 4384 
L 1825 4384 
Q 1516 4384 1395 4259 
Q 1275 4134 1275 3809 
L 1275 3500 
L 2222 3500 
L 2222 3053 
L 1275 3053 
L 1275 0 
L 697 0 
L 697 3053 
L 147 3053 
L 147 3500 
L 697 3500 
L 697 3744 
Q 697 4328 969 4595 
Q 1241 4863 1831 4863 
L 2375 4863 
z
" transform="scale(0.015625)"/>
       <path id="DejaVuSans-6f" d="M 1959 3097 
Q 1497 3097 1228 2736 
Q 959 2375 959 1747 
Q 959 1119 1226 758 
Q 1494 397 1959 397 
Q 2419 397 2687 759 
Q 2956 1122 2956 1747 
Q 2956 2369 2687 2733 
Q 2419 3097 1959 3097 
z
M 1959 3584 
Q 2709 3584 3137 3096 
Q 3566 2609 3566 1747 
Q 3566 888 3137 398 
Q 2709 -91 1959 -91 
Q 1206 -91 779 398 
Q 353 888 353 1747 
Q 353 2609 779 3096 
Q 1206 3584 1959 3584 
z
" transform="scale(0.015625)"/>
       <path id="DejaVuSans-72" d="M 2631 2963 
Q 2534 3019 2420 3045 
Q 2306 3072 2169 3072 
Q 1681 3072 1420 2755 
Q 1159 2438 1159 1844 
L 1159 0 
L 581 0 
L 581 3500 
L 1159 3500 
L 1159 2956 
Q 1341 3275 1631 3429 
Q 1922 3584 2338 3584 
Q 2397 3584 2469 3576 
Q 2541 3569 2628 3553 
L 2631 2963 
z
" transform="scale(0.015625)"/>
      </defs>
      <use xlink:href="#DejaVuSans-6d"/>
      <use xlink:href="#DejaVuSans-75" x="97.412109"/>
      <use xlink:href="#DejaVuSans-74" x="160.791016"/>
      <use xlink:href="#DejaVuSans-75" x="200"/>
      <use xlink:href="#DejaVuSans-61" x="263.378906"/>
      <use xlink:href="#DejaVuSans-6c" x="324.658203"/>
      <use xlink:href="#DejaVuSans-20" x="352.441406"/>
      <use xlink:href="#DejaVuSans-69" x="384.228516"/>
      <use xlink:href="#DejaVuSans-6e" x="412.011719"/>
      <use xlink:href="#DejaVuSans-66" x="475.390625"/>
      <use xlink:href="#DejaVuSans-6f" x="510.595703"/>
      <use xlink:href="#DejaVuSans-72" x="571.777344"/>
      <use xlink:href="#DejaVuSans-6d" x="611.140625"/>
      <use xlink:href="#DejaVuSans-61" x="708.552734"/>
      <use xlink:href="#DejaVuSans-74" x="769.832031"/>
      <use xlink:href="#DejaVuSans-69" x="809.041016"/>
      <use xlink:href="#DejaVuSans-6f" x="836.824219"/>
      <use xlink:href="#DejaVuSans-6e" x="898.005859"/>
     </g>
    </g>
   </g>
   <g id="line2d_14">
    <path d="M 73.832727 70.453479 
L 74.158032 125.961481 
L 74.483338 154.100226 
L 74.808643 167.735416 
L 75.133948 166.175332 
L 75.459253 168.5605 
L 75.784558 184.009519 
L 76.109863 189.612652 
L 76.435169 190.305578 
L 76.760474 183.92579 
L 77.085779 195.680787 
L 77.411084 201.589185 
L 77.736389 202.829813 
L 78.061694 188.547748 
L 78.712305 208.901205 
L 79.03761 213.725037 
L 79.68822 203.289136 
L 80.013525 215.237782 
L 80.33883 219.890247 
L 80.664136 221.840696 
L 80.989441 212.867859 
L 81.314746 218.697245 
L 81.640051 222.527499 
L 81.965356 229.823949 
L 82.290661 225.192028 
L 82.615966 218.048565 
L 83.266577 233.210431 
L 83.591882 232.712062 
L 83.917187 222.330136 
L 84.567797 228.549774 
L 84.893103 234.440093 
L 85.218408 232.396417 
L 85.543713 228.34861 
L 85.869018 230.565825 
L 86.194323 237.104403 
L 86.519628 234.802155 
L 86.844934 226.254071 
L 87.170239 226.656769 
L 87.820849 238.749838 
L 88.146154 235.873957 
L 88.471459 235.085393 
L 88.796764 227.215852 
L 89.12207 229.526754 
L 89.447375 233.080367 
L 89.77268 234.542225 
L 90.097985 237.877427 
L 90.42329 232.271016 
L 90.748595 231.783622 
L 91.073901 228.123034 
L 91.399206 228.947978 
L 91.724511 234.592077 
L 92.049816 234.916691 
L 92.375121 236.917337 
L 93.025731 223.468892 
L 93.351037 224.529331 
L 93.676342 233.915028 
L 94.001647 234.867121 
L 94.652257 222.870134 
L 94.977562 230.328441 
L 95.302868 231.269091 
L 95.628173 224.252597 
L 96.278783 219.240983 
L 96.604088 230.001481 
L 96.929393 229.461067 
L 97.254698 223.972477 
L 97.580004 212.282562 
L 97.905309 222.715118 
L 98.230614 226.989777 
L 99.206529 209.011211 
L 99.531835 219.987281 
L 99.85714 217.401939 
L 100.182445 212.494379 
L 100.50775 199.838069 
L 100.833055 208.37778 
L 101.15836 212.771666 
L 101.483666 207.395908 
L 102.134276 186.906462 
L 102.459581 202.959243 
L 102.784886 200.686625 
L 103.110191 193.92183 
L 103.435496 181.849635 
L 103.760802 190.783935 
L 104.086107 190.502556 
L 104.411412 182.79119 
L 104.736717 167.606979 
L 105.062022 167.763223 
L 105.387327 167.338059 
L 105.712633 152.026041 
L 106.037938 122.130733 
L 106.363243 80.352796 
L 106.688548 130.569881 
L 107.013853 156.962397 
L 107.339158 169.021941 
L 107.664463 164.911469 
L 107.989769 171.821476 
L 108.315074 186.510148 
L 108.640379 189.76058 
L 108.965684 190.004152 
L 109.290989 186.015916 
L 109.616294 197.291056 
L 109.9416 203.343578 
L 110.266905 202.717246 
L 110.59221 191.380257 
L 111.24282 208.745093 
L 111.568125 214.771785 
L 111.89343 208.211792 
L 112.218736 205.837885 
L 112.544041 216.445658 
L 112.869346 221.489238 
L 113.194651 221.783803 
L 113.519956 213.184917 
L 113.845261 221.139169 
L 114.170567 225.012537 
L 114.495872 230.607252 
L 114.821177 224.599198 
L 115.146482 220.885773 
L 115.471787 226.507213 
L 115.797092 234.698436 
L 116.122398 232.967455 
L 116.447703 221.944737 
L 117.423618 235.044247 
L 117.748923 231.626943 
L 118.074228 230.600118 
L 118.399534 232.830492 
L 118.724839 237.781186 
L 119.050144 234.366293 
L 119.375449 226.45144 
L 119.700754 227.386635 
L 120.026059 235.374012 
L 120.351365 239.292337 
L 120.67667 235.157921 
L 121.001975 234.874125 
L 121.32728 225.299754 
L 121.652585 230.657049 
L 122.628501 237.920884 
L 122.953806 230.858324 
L 123.279111 230.76348 
L 123.604416 227.462674 
L 123.929721 230.336184 
L 124.255026 234.560451 
L 124.580332 235.864519 
L 124.905637 236.699153 
L 125.556247 222.817401 
L 125.881552 224.585585 
L 126.206857 234.485883 
L 126.532163 234.408735 
L 127.182773 223.624734 
L 127.508078 230.442608 
L 127.833383 230.248784 
L 128.158688 223.141774 
L 128.483993 219.942196 
L 128.809299 221.483499 
L 129.134604 230.41501 
L 129.459909 228.72746 
L 129.785214 222.627547 
L 130.110519 213.177624 
L 130.435824 223.493758 
L 130.76113 226.369665 
L 131.086435 221.019774 
L 131.41174 212.650172 
L 131.737045 208.98137 
L 132.06235 219.739697 
L 132.71296 210.215069 
L 133.038266 199.832618 
L 133.363571 209.357171 
L 133.688876 212.053909 
L 134.014181 205.637328 
L 134.339486 195.460724 
L 134.664791 190.14534 
L 134.990097 203.019352 
L 135.315402 198.622114 
L 135.640707 191.834077 
L 135.966012 180.605601 
L 136.291317 190.041798 
L 136.616622 190.178313 
L 136.941927 180.013943 
L 137.267233 165.974523 
L 137.592538 167.836642 
L 137.917843 165.487032 
L 138.243148 148.560123 
L 138.893758 89.189925 
L 139.219064 134.11047 
L 139.544369 158.634624 
L 139.869674 169.153318 
L 140.194979 163.135247 
L 140.520284 172.95803 
L 140.845589 187.526136 
L 141.170895 188.608541 
L 141.4962 188.982332 
L 141.821505 186.900851 
L 142.472115 203.697475 
L 142.79742 201.361666 
L 143.122725 191.407517 
L 143.448031 202.89226 
L 144.098641 214.408564 
L 144.423946 205.826131 
L 144.749251 206.049723 
L 145.074556 216.229842 
L 145.399862 222.253689 
L 145.725167 221.040288 
L 146.050472 213.138678 
L 146.375777 221.699659 
L 147.026387 230.160337 
L 147.351692 222.2438 
L 147.676998 223.103243 
L 148.002303 227.279143 
L 148.327608 234.532329 
L 148.652913 231.86796 
L 148.978218 219.987526 
L 149.303523 226.343893 
L 149.628829 229.535119 
L 149.954134 235.023999 
L 150.279439 230.251416 
L 150.930049 233.377942 
L 151.255354 237.40588 
L 151.58066 232.984954 
L 151.905965 226.220215 
L 152.23127 228.251093 
L 152.556575 236.214155 
L 152.88188 239.230358 
L 153.207185 233.864459 
L 153.53249 234.427105 
L 153.857796 225.908136 
L 154.183101 230.935524 
L 154.508406 232.904178 
L 154.833711 236.776676 
L 155.159016 237.76453 
L 155.484321 231.86315 
L 155.809627 230.410111 
L 156.134932 225.565437 
L 156.460237 231.765508 
L 156.785542 234.844179 
L 157.110847 236.142443 
L 157.436152 236.176723 
L 157.761457 226.984213 
L 158.086763 222.413303 
L 158.412068 226.663354 
L 158.737373 235.163281 
L 159.062678 234.278782 
L 159.387983 227.640805 
L 159.713288 224.205632 
L 160.038594 230.740831 
L 160.363899 229.276875 
L 160.689204 222.292784 
L 161.014509 219.544415 
L 161.339814 223.165852 
L 161.665119 230.90556 
L 161.990424 228.291871 
L 162.641035 215.69114 
L 162.96634 224.858233 
L 163.291645 226.760548 
L 163.61695 220.959283 
L 163.942255 210.807858 
L 164.267561 211.088634 
L 164.592866 220.206088 
L 165.568781 200.530417 
L 165.894086 210.859395 
L 166.219392 212.293796 
L 166.544697 205.209822 
L 166.870002 195.570926 
L 167.195307 193.552986 
L 167.520612 204.099056 
L 168.171222 190.859117 
L 168.496528 181.514356 
L 168.821833 190.889394 
L 169.147138 190.47543 
L 169.797748 165.455879 
L 170.123053 169.115163 
L 170.448359 165.112138 
L 170.773664 146.624069 
L 171.098969 112.372176 
L 171.424274 97.028021 
L 171.749579 138.922204 
L 172.074884 161.817567 
L 172.400189 170.780344 
L 172.725495 161.658096 
L 173.376105 189.627353 
L 173.70141 191.054468 
L 174.026715 188.773879 
L 174.35202 189.473469 
L 175.002631 204.854785 
L 175.327936 200.63579 
L 175.653241 192.741388 
L 175.978546 206.409592 
L 176.303851 209.659876 
L 176.629156 214.667659 
L 176.954462 203.651869 
L 177.279767 207.786882 
L 177.605072 217.928791 
L 177.930377 223.675264 
L 178.255682 220.795098 
L 178.580987 213.734624 
L 178.906293 223.862271 
L 179.556903 230.227806 
L 179.882208 220.214653 
L 180.207513 226.749367 
L 180.532818 229.203434 
L 180.858124 235.199755 
L 181.183429 231.183079 
L 181.508734 221.115247 
L 182.159344 231.717218 
L 182.484649 235.677509 
L 182.809954 229.008607 
L 183.13526 234.218231 
L 183.460565 234.484518 
L 183.78587 237.32236 
L 184.43648 225.630849 
L 184.761785 229.162367 
L 185.087091 237.467754 
L 185.412396 239.303454 
L 185.737701 235.162104 
L 186.063006 233.900081 
L 186.388311 226.331945 
L 186.713616 231.2451 
L 187.038921 231.844734 
L 187.364227 237.882079 
L 187.689532 237.466183 
L 188.665447 222.447416 
L 188.990752 233.220226 
L 189.641363 236.175686 
L 189.966668 235.147687 
L 190.291973 224.13208 
L 190.617278 221.169898 
L 191.267889 235.461506 
L 191.593194 233.435814 
L 191.918499 225.996456 
L 192.243804 223.368122 
L 192.569109 230.257389 
L 192.894414 227.151494 
L 193.219719 220.394361 
L 193.545025 218.095395 
L 194.195635 230.389252 
L 194.52094 226.415934 
L 194.846245 219.317321 
L 195.17155 216.605233 
L 195.496856 225.166409 
L 195.822161 225.758486 
L 196.147466 219.257735 
L 196.472771 206.338873 
L 196.798076 211.531094 
L 197.123381 218.849113 
L 197.448686 213.574646 
L 198.099297 198.91276 
L 198.424602 210.677885 
L 198.749907 210.284035 
L 199.400517 192.500872 
L 199.725823 194.728983 
L 200.051128 202.939775 
L 200.376433 197.2516 
L 201.027043 180.071283 
L 201.352348 189.318186 
L 201.677653 188.041035 
L 202.328264 161.103002 
L 202.653569 167.973346 
L 202.978874 161.759906 
L 203.304179 141.104554 
L 203.629484 103.404048 
L 203.95479 103.868115 
L 204.280095 142.325556 
L 204.6054 163.142392 
L 204.930705 170.048554 
L 205.25601 159.874366 
L 205.906621 189.562739 
L 206.231926 191.613722 
L 206.557231 185.700547 
L 206.882536 189.543863 
L 207.533146 203.685574 
L 207.858451 196.099509 
L 208.183757 194.588 
L 208.509062 208.289059 
L 208.834367 209.454333 
L 209.159672 212.569501 
L 209.484977 200.943026 
L 210.135588 217.480743 
L 210.460893 223.287002 
L 211.111503 212.091491 
L 211.436808 224.701187 
L 211.762113 227.372595 
L 212.087418 228.151525 
L 212.412724 217.238077 
L 212.738029 229.265718 
L 213.063334 229.923212 
L 213.388639 234.33665 
L 213.713944 228.151593 
L 214.039249 224.08298 
L 214.364555 226.351534 
L 214.68986 233.156218 
L 215.015165 235.210609 
L 215.34047 226.466102 
L 215.665775 234.855763 
L 215.99108 234.435456 
L 216.316385 236.060953 
L 216.966996 222.326974 
L 217.292301 228.91539 
L 217.617606 238.103843 
L 217.942911 238.869519 
L 218.268216 234.246122 
L 218.593522 231.506545 
L 218.918827 225.308934 
L 219.244132 231.044193 
L 219.569437 230.656324 
L 219.894742 237.662958 
L 220.220047 235.767661 
L 220.545353 233.169988 
L 221.195963 222.345876 
L 221.521268 233.732004 
L 221.846573 234.138392 
L 222.171878 235.785777 
L 222.497183 233.607759 
L 222.822489 224.016921 
L 223.147794 220.841562 
L 223.473099 230.046194 
L 223.798404 235.427311 
L 224.123709 232.257934 
L 224.449014 223.955479 
L 224.77432 222.751124 
L 225.099625 230.678003 
L 225.750235 220.601729 
L 226.07554 215.154603 
L 226.400845 225.434705 
L 226.72615 230.160746 
L 227.051456 224.481861 
L 227.376761 216.073698 
L 227.702066 218.076308 
L 228.027371 226.613035 
L 228.352676 225.649624 
L 228.677981 218.280681 
L 229.003287 205.23784 
L 229.328592 213.679648 
L 229.653897 218.829728 
L 229.979202 214.66997 
L 230.304507 202.989067 
L 230.629812 201.727147 
L 230.955118 212.580057 
L 231.280423 209.922647 
L 231.931033 190.408856 
L 232.256338 198.814901 
L 232.581643 204.105486 
L 232.906948 199.094162 
L 233.232254 187.253342 
L 233.557559 184.401047 
L 233.882864 189.906597 
L 234.208169 187.865511 
L 234.858779 161.994474 
L 235.184085 169.975024 
L 235.50939 161.038046 
L 235.834695 137.447918 
L 236.16 92.533939 
L 236.485305 113.96604 
L 236.81061 148.925517 
L 237.135915 167.231597 
L 237.461221 171.284611 
L 237.786526 161.75048 
L 238.111831 180.857973 
L 238.437136 192.893778 
L 238.762441 193.702838 
L 239.087746 184.462441 
L 240.063662 205.601643 
L 240.388967 195.217583 
L 240.714272 196.821539 
L 241.039577 212.580176 
L 241.364882 211.709494 
L 241.690188 213.615511 
L 242.015493 200.593743 
L 242.340798 214.592587 
L 242.666103 218.746881 
L 242.991408 225.895587 
L 243.642019 214.332312 
L 243.967324 225.980037 
L 244.292629 228.979605 
L 244.617934 229.196216 
L 244.943239 217.709343 
L 245.268544 231.435502 
L 245.59385 231.537073 
L 245.919155 235.372924 
L 246.24446 228.69545 
L 246.569765 225.521095 
L 246.89507 226.914736 
L 247.220375 235.249475 
L 247.54568 236.683736 
L 247.870986 227.731134 
L 248.196291 235.479765 
L 248.521596 235.128753 
L 248.846901 236.205431 
L 249.172206 227.721391 
L 249.497511 224.553861 
L 249.822817 229.939236 
L 250.148122 238.332587 
L 250.473427 238.395346 
L 251.124037 229.056605 
L 251.449342 226.642186 
L 251.774647 230.81566 
L 252.099953 230.680608 
L 252.425258 236.488385 
L 252.750563 232.654577 
L 253.075868 233.541309 
L 253.401173 227.514544 
L 253.726478 223.985023 
L 254.051784 233.284795 
L 254.377089 231.807293 
L 254.702394 234.386033 
L 255.027699 230.559666 
L 255.353004 222.364529 
L 255.678309 218.923593 
L 256.003615 230.719199 
L 256.32892 234.215818 
L 256.654225 229.153171 
L 256.97953 218.329546 
L 257.63014 229.593165 
L 258.606056 208.624167 
L 258.931361 225.314361 
L 259.256666 227.874748 
L 259.907276 208.990422 
L 260.557887 225.379519 
L 260.883192 222.250229 
L 261.533802 203.361091 
L 261.859107 213.741729 
L 262.184412 216.552734 
L 262.509718 212.023783 
L 262.835023 197.500686 
L 263.160328 200.023776 
L 263.485633 211.237769 
L 263.810938 206.181436 
L 264.461549 184.258361 
L 264.786854 198.036933 
L 265.112159 201.771582 
L 265.437464 196.611039 
L 265.762769 183.706768 
L 266.088074 183.187015 
L 266.413379 185.918592 
L 266.738685 185.22876 
L 267.389295 159.072128 
L 267.7146 166.995011 
L 268.039905 157.251151 
L 268.36521 132.677769 
L 268.690516 85.855486 
L 269.666431 166.115885 
L 269.991736 169.463717 
L 270.317041 160.789305 
L 270.642347 179.100843 
L 270.967652 190.446394 
L 271.292957 192.062791 
L 271.618262 181.873713 
L 272.268872 197.370548 
L 272.594177 203.82854 
L 272.919483 193.134205 
L 273.244788 196.412552 
L 273.570093 211.335986 
L 273.895398 210.005365 
L 274.220703 211.776215 
L 274.546008 199.539879 
L 274.871314 213.929737 
L 275.196619 217.513927 
L 275.521924 224.38483 
L 276.172534 213.0966 
L 276.497839 224.186384 
L 276.823144 228.121153 
L 277.14845 228.0062 
L 277.473755 217.380788 
L 277.79906 230.305228 
L 278.124365 230.181852 
L 278.44967 233.497683 
L 278.774975 226.390409 
L 279.100281 224.925192 
L 279.425586 224.833979 
L 279.750891 235.575329 
L 280.076196 236.225031 
L 280.401501 227.102592 
L 280.726806 233.993088 
L 281.377417 234.128147 
L 281.702722 224.863286 
L 282.028027 225.897669 
L 282.353332 229.658389 
L 282.678637 237.109257 
L 283.003942 236.468816 
L 283.329248 231.852185 
L 283.654553 225.361552 
L 283.979858 225.84117 
L 284.305163 228.629111 
L 284.630468 229.698517 
L 284.955773 234.516934 
L 285.281079 228.942108 
L 285.606384 232.677578 
L 285.931689 225.928477 
L 286.256994 223.334915 
L 286.582299 231.628768 
L 286.907604 228.376077 
L 287.232909 233.63352 
L 287.558215 228.82856 
L 287.88352 221.292008 
L 288.208825 216.406994 
L 288.53413 230.862527 
L 288.859435 233.512283 
L 289.18474 227.348205 
L 289.510046 216.550648 
L 289.835351 226.210189 
L 290.160656 230.040698 
L 290.485961 222.477556 
L 290.811266 219.750364 
L 291.136571 208.804744 
L 291.461876 225.645992 
L 291.787182 227.990016 
L 292.437792 210.662319 
L 293.088402 226.196485 
L 293.413707 222.286347 
L 294.064318 206.356426 
L 294.389623 216.011282 
L 294.714928 218.051681 
L 295.040233 215.234161 
L 295.365538 199.898551 
L 295.690844 203.020684 
L 296.016149 214.08601 
L 296.666759 200.845832 
L 296.992064 187.640531 
L 297.317369 202.389039 
L 297.642674 205.163232 
L 297.96798 201.536995 
L 298.293285 188.835668 
L 298.61859 188.912862 
L 298.943895 191.068362 
L 299.2692 189.222797 
L 299.919811 163.89913 
L 300.245116 172.990763 
L 300.570421 162.642453 
L 300.895726 137.124114 
L 301.221031 88.54213 
L 301.871641 156.518108 
L 302.196947 173.107686 
L 302.522252 174.969752 
L 302.847557 168.699194 
L 303.172862 185.554328 
L 303.498167 195.424625 
L 303.823472 198.612926 
L 304.148778 187.160509 
L 304.474083 197.9941 
L 305.124693 209.132564 
L 305.449998 197.01066 
L 305.775303 203.787157 
L 306.100608 217.676445 
L 306.425914 215.42898 
L 306.751219 216.318992 
L 307.076524 204.98017 
L 307.401829 220.709327 
L 307.727134 223.469224 
L 308.052439 229.916395 
L 308.377745 223.339815 
L 308.70305 219.206269 
L 309.028355 228.400543 
L 309.35366 234.085384 
L 309.678965 233.036125 
L 310.00427 223.83137 
L 310.329576 235.714742 
L 310.654881 235.190411 
L 310.980186 237.60053 
L 311.305491 229.040876 
L 311.630796 231.215284 
L 311.956101 230.514979 
L 312.281406 240.219709 
L 312.606712 240.22217 
L 312.932017 231.110234 
L 313.257322 236.337949 
L 313.582627 237.360357 
L 313.907932 236.556796 
L 314.233237 226.249816 
L 314.883848 232.505701 
L 315.209153 238.864729 
L 315.534458 236.971997 
L 315.859763 233.411661 
L 316.185068 225.811824 
L 316.510373 225.863429 
L 316.835679 230.583551 
L 317.160984 230.967468 
L 317.486289 234.737249 
L 317.811594 228.155266 
L 318.136899 231.611282 
L 318.462204 223.855199 
L 318.78751 223.730655 
L 319.112815 230.943271 
L 319.43812 226.578445 
L 319.763425 231.394037 
L 320.73934 214.560588 
L 321.064646 228.521737 
L 321.389951 230.233908 
L 322.040561 211.695097 
L 322.365866 223.763284 
L 322.691171 226.757113 
L 323.016477 217.295667 
L 323.341782 216.125345 
L 323.667087 203.774593 
L 323.992392 220.397236 
L 324.317697 221.135568 
L 324.643002 215.759944 
L 324.968308 206.610606 
L 325.293613 212.096633 
L 325.618918 220.146158 
L 326.594833 202.146248 
L 326.920138 210.768237 
L 327.245444 211.052613 
L 327.570749 210.805212 
L 327.896054 192.857261 
L 328.221359 196.916596 
L 328.546664 206.549967 
L 328.871969 205.56702 
L 329.197275 195.935722 
L 329.52258 179.780395 
L 329.847885 196.3034 
L 330.17319 196.752981 
L 330.498495 195.008781 
L 330.8238 181.752611 
L 331.149105 183.544423 
L 331.474411 184.483032 
L 331.799716 179.998021 
L 332.450326 159.948771 
L 332.775631 166.413412 
L 333.100936 154.504532 
L 333.426242 126.82731 
L 333.751547 73.85124 
L 334.076852 122.155407 
L 334.402157 152.665039 
L 334.727462 167.459295 
L 335.052767 166.868214 
L 335.378073 164.133016 
L 335.703378 178.571634 
L 336.353988 190.751906 
L 336.679293 185.954806 
L 337.004598 193.443181 
L 337.655209 200.931208 
L 337.980514 187.242326 
L 338.631124 211.768484 
L 338.956429 206.874911 
L 339.281734 207.442146 
L 339.60704 198.467438 
L 339.932345 215.882777 
L 340.25765 216.61445 
L 340.582955 220.698636 
L 340.90826 218.880994 
L 341.233565 212.716332 
L 341.55887 218.436097 
L 341.884176 227.649183 
L 342.209481 225.244713 
L 342.534786 218.393142 
L 342.860091 228.296398 
L 343.185396 227.651849 
L 343.510701 228.176952 
L 343.836007 217.264074 
L 344.161312 227.096465 
L 344.486617 224.346686 
L 344.811922 230.860621 
L 345.137227 230.359407 
L 345.462532 222.068282 
L 345.787837 224.237945 
L 346.113143 227.333839 
L 346.438448 223.656789 
L 346.763753 210.838993 
L 347.089058 218.680463 
L 347.414363 220.322133 
L 347.739668 224.337333 
L 348.064974 220.450268 
L 348.390279 219.387357 
L 348.715584 208.574402 
L 349.040889 207.703669 
L 349.366194 217.051284 
L 349.691499 216.108372 
L 350.016805 217.780176 
L 350.34211 209.244005 
L 350.667415 211.678896 
L 350.99272 206.975627 
L 351.318025 205.779187 
L 351.64333 213.442696 
L 351.968635 213.530546 
L 352.293941 215.204384 
L 352.619246 218.308324 
L 352.944551 209.301341 
L 353.595161 199.380668 
L 353.920466 213.779056 
L 354.245772 220.5121 
L 354.571077 216.47905 
L 354.896382 203.090994 
L 355.221687 205.138647 
L 355.546992 202.276164 
L 355.872297 212.72983 
L 356.197602 212.424944 
L 356.522908 214.961713 
L 356.848213 203.765224 
L 357.173518 208.798731 
L 357.498823 204.595805 
L 358.149433 223.137656 
L 358.474739 213.917745 
L 358.800044 220.813008 
L 359.125349 220.444128 
L 359.450654 202.062272 
L 359.775959 203.331784 
L 360.101264 219.558617 
L 360.751875 209.819253 
L 361.07718 200.286121 
L 361.402485 214.680404 
L 361.72779 209.39275 
L 362.3784 201.443804 
L 362.703706 210.754418 
L 363.029011 202.847104 
L 363.354316 186.557389 
L 363.679621 183.723711 
L 364.004926 201.223935 
L 364.330231 190.309824 
L 364.655537 172.72121 
L 364.980842 190.423243 
L 365.306147 180.865644 
L 365.956757 158.026798 
L 366.282062 73.703328 
L 366.607367 158.033987 
L 367.583283 186.721264 
L 367.908588 192.062184 
L 368.233893 191.028311 
L 368.559198 193.893853 
L 368.884504 210.167082 
L 369.209809 192.282942 
L 369.535114 207.3045 
L 369.860419 206.351225 
L 370.185724 211.504688 
L 370.511029 205.836614 
L 370.836334 220.219762 
L 371.16164 218.770354 
L 371.486945 214.136969 
L 371.81225 231.006761 
L 372.137555 216.390019 
L 372.46286 227.734435 
L 372.788165 229.792533 
L 373.113471 222.239123 
L 373.438776 232.3364 
L 373.764081 220.865971 
L 374.089386 230.638109 
L 374.414691 226.389993 
L 374.739996 242.919383 
L 375.065302 228.057446 
L 375.390607 226.258702 
L 375.715912 236.281656 
L 376.366522 232.792151 
L 376.691827 226.212007 
L 377.017132 235.290408 
L 377.342438 229.772036 
L 377.667743 227.664249 
L 378.318353 225.796879 
L 378.968963 227.248367 
L 379.619574 205.042457 
L 379.944879 211.629834 
L 380.595489 184.70864 
L 380.920794 193.703904 
L 381.246099 173.322702 
L 381.571405 170.162777 
L 381.89671 171.885357 
L 382.222015 165.927266 
L 382.54732 149.829986 
L 382.872625 147.639107 
L 383.19793 155.496968 
L 383.523236 124.499279 
L 383.848541 137.437926 
L 384.173846 135.672264 
L 384.499151 137.171845 
L 384.824456 119.825228 
L 385.149761 116.979676 
L 385.475066 139.091262 
L 385.800372 129.851952 
L 386.125677 104.868387 
L 386.450982 120.778826 
L 386.776287 114.471248 
L 387.101592 117.299833 
L 388.077508 94.885916 
L 388.402813 97.655759 
L 388.728118 83.605778 
L 389.053423 124.852591 
L 389.378728 128.522798 
L 389.704034 105.017375 
L 390.354644 98.612697 
L 390.679949 107.590823 
L 391.005254 85.445208 
L 391.330559 108.100723 
L 391.655864 89.088083 
L 391.98117 83.241093 
L 392.306475 92.429252 
L 392.957085 77.747734 
L 393.607695 58.122107 
L 393.933001 66.624883 
L 394.258306 53.568 
L 395.234221 80.359789 
L 396.210137 114.900415 
L 396.860747 145.074554 
L 397.511357 185.473197 
L 398.161968 246.805657 
L 398.487273 295.488 
L 398.487273 295.488 
" clip-path="url(#pf0f5a4dd0e)" style="fill: none; stroke: #1f77b4; stroke-width: 1.5; stroke-linecap: square"/>
   </g>
   <g id="patch_3">
    <path d="M 57.6 307.584 
L 57.6 41.472 
" style="fill: none; stroke: #000000; stroke-width: 0.8; stroke-linejoin: miter; stroke-linecap: square"/>
   </g>
   <g id="patch_4">
    <path d="M 414.72 307.584 
L 414.72 41.472 
" style="fill: none; stroke: #000000; stroke-width: 0.8; stroke-linejoin: miter; stroke-linecap: square"/>
   </g>
   <g id="patch_5">
    <path d="M 57.6 307.584 
L 414.72 307.584 
" style="fill: none; stroke: #000000; stroke-width: 0.8; stroke-linejoin: miter; stroke-linecap: square"/>
   </g>
   <g id="patch_6">
    <path d="M 57.6 41.472 
L 414.72 41.472 
" style="fill: none; stroke: #000000; stroke-width: 0.8; stroke-linejoin: miter; stroke-linecap: square"/>
   </g>
  </g>
 </g>
 <defs>
  <clipPath id="pf0f5a4dd0e">
   <rect x="57.6" y="41.472" width="357.12" height="266.112"/>
  </clipPath>
 </defs>
</svg>
